<?xml version="1.0" encoding="iso-8859-1"?>
<!DOCTYPE svg PUBLIC "-//W3C//DTD SVG 1.1//EN" "http://www.w3.org/Graphics/SVG/1.1/DTD/svg11.dtd">
<svg 
 version="1.1" xmlns="http://www.w3.org/2000/svg" xmlns:xlink="http://www.w3.org/1999/xlink" x="0px" y="0px" width="512px"
	 height="512px" viewBox="0 0 512 512" style="enable-background:new 0 0 512 512;" xml:space="preserve"
><g id="7935ec95c421cee6d86eb22ecd14b6fd"><g></g><path style="display: inline; fill-rule: evenodd; clip-rule: evenodd;" d="M132.982,38.351h75.702c10.413,0,24.036,6.812,30.282,15.142
		l31.23,41.639h201.876c21.687,0,39.427,17.034,39.427,37.852l-24.448,302.815c0,20.817-17.744,37.852-39.427,37.852H77.782
		c-21.687,0-39.431-17.034-39.431-37.852L0.5,132.982c0-20.817,16.164-37.852,37.851-37.852h37.851v321.737
		c0,10.413,8.517,18.93,18.93,18.93c10.405,0,18.921-8.517,18.921-18.93V95.131V57.276
		C114.053,46.867,122.569,38.351,132.982,38.351z"></path></g></svg>